<svg id="Livello_1" data-name="Livello 1" xmlns="http://www.w3.org/2000/svg" viewBox="0 0 1000 1000"><defs><style>.cls-1{fill:#1d1d1b;}</style></defs><title>asterisk-01</title><path class="cls-1" d="M221,89.53l-7.64-25a8.61,8.61,0,0,0-10.74-5.71L132.06,80.38V8.61A8.61,8.61,0,0,0,123.45,0H97.33a8.61,8.61,0,0,0-8.61,8.61V80.23l-70-21.4A8.61,8.61,0,0,0,8,64.55l-7.64,25a8.61,8.61,0,0,0,5.71,10.75l72.45,22.15-46.2,61.28A8.61,8.61,0,0,0,34,195.77L54.9,211.47a8.61,8.61,0,0,0,12-1.69L110.5,152,154,209.76a8.61,8.61,0,0,0,12,1.7l20.86-15.69a8.61,8.61,0,0,0,1.7-12.06l-46.13-61.2,72.83-22.23A8.61,8.61,0,0,0,221,89.53Z"/></svg>