<svg id="Livello_1" data-name="Livello 1" xmlns="http://www.w3.org/2000/svg" viewBox="0 0 1000 1000"><defs><style>.cls-1{fill:#1d1d1b;}</style></defs><title>asterisk-01</title><path class="cls-1" d="M317.73,136.26,299.83,81.15a12,12,0,0,0-15.16-7.73l-84.49,27.45V12a12,12,0,0,0-12-12h-58a12,12,0,0,0-12,12v88.84L33.66,73.42A12,12,0,0,0,18.5,81.15L.59,136.26a12,12,0,0,0,7.73,15.16l84.49,27.45L40.59,250.75a12,12,0,0,0,2.66,16.81l46.88,34.06A12,12,0,0,0,106.95,299l52.22-71.87L211.38,299a12,12,0,0,0,16.81,2.66l46.88-34.06a12,12,0,0,0,2.66-16.81l-52.22-71.87L310,151.42A12,12,0,0,0,317.73,136.26Z"/></svg>