<svg id="Livello_1" data-name="Livello 1" xmlns="http://www.w3.org/2000/svg" viewBox="0 0 1000 1000"><defs><style>.cls-1{fill:#1d1d1b;}</style></defs><title>b-01</title><path class="cls-1" d="M367.74,309.79V127A127,127,0,0,0,240.7,0H12A12,12,0,0,0,0,12.09V788a12,12,0,0,0,12,12H240.81A127,127,0,0,0,367.74,673.07V490.21A90.27,90.27,0,0,0,277.53,400,90.27,90.27,0,0,0,367.74,309.79ZM235.07,623.08a44.3,44.3,0,0,1-44.26,44.26H132.66v-201h58.16a44.3,44.3,0,0,1,44.26,44.26Zm0-333.67a44.3,44.3,0,0,1-44.26,44.26H132.66v-201h58.16a44.3,44.3,0,0,1,44.26,44.26Z"/></svg>