<svg id="Livello_1" data-name="Livello 1" xmlns="http://www.w3.org/2000/svg" viewBox="0 0 1000 1000"><defs><style>.cls-1{fill:#1d1d1b;}</style></defs><title>b-01</title><path class="cls-1" d="M399.63,311.53V126.95A127,127,0,0,0,272.58,0H12A12,12,0,0,0,0,12V787.9A12,12,0,0,0,12,800H272.58A127,127,0,0,0,399.63,673.05V488.47a88.54,88.54,0,0,0-88.52-88.52A88.45,88.45,0,0,0,399.63,311.53ZM132.68,132.68h90a44.23,44.23,0,0,1,44.26,44.27v112.4a44.27,44.27,0,0,1-41.5,44.16,24.61,24.61,0,0,1-2.76.1h-90ZM266.95,623.06a44.3,44.3,0,0,1-44.26,44.26h-90v-201h90a24.61,24.61,0,0,1,2.76.1,44.2,44.2,0,0,1,41.5,44.16Z"/></svg>