<svg id="Livello_1" data-name="Livello 1" xmlns="http://www.w3.org/2000/svg" viewBox="0 0 1000 1000"><defs><style>.cls-1{fill:#1d1d1b;}</style></defs><title>c-01</title><path class="cls-1" d="M372.09,127V272.6a12,12,0,0,1-12,12H251.46a12,12,0,0,1-12-12V176.88a44.22,44.22,0,0,0-44.22-44.22H176.88a44.22,44.22,0,0,0-44.22,44.22V623a44.22,44.22,0,0,0,44.22,44.22H195.2A44.22,44.22,0,0,0,239.43,623V527.29a12,12,0,0,1,12-12H360.06a12,12,0,0,1,12,12V672.94a127,127,0,0,1-127,127H132.66v.1H127A127,127,0,0,1,0,673V127A127,127,0,0,1,127,0H245.14A127,127,0,0,1,372.09,127Z"/></svg>