<svg id="Livello_1" data-name="Livello 1" xmlns="http://www.w3.org/2000/svg" viewBox="0 0 1000 1000"><defs><style>.cls-1{fill:#1d1d1b;}</style></defs><title>c-01</title><path class="cls-1" d="M0,90.19v619A90.19,90.19,0,0,0,89.91,799.4l169.44.6a90.19,90.19,0,0,0,90.47-90.19V527.18a12,12,0,0,0-11.92-12l-97.75-1a12,12,0,0,0-12.13,12V636.48A30.06,30.06,0,0,1,198,666.54H152A30.06,30.06,0,0,1,122,636.48V163A30.06,30.06,0,0,1,152,132.91H198A30.06,30.06,0,0,1,228,163v95.27a12,12,0,0,0,11.92,12l97.75,1a12,12,0,0,0,12.13-12V90.79A90.19,90.19,0,0,0,259.92.6L90.47,0A90.19,90.19,0,0,0,0,90.19Z"/></svg>