<svg id="Livello_1" data-name="Livello 1" xmlns="http://www.w3.org/2000/svg" viewBox="0 0 1000 1000"><defs><style>.cls-1{fill:#1d1d1b;}</style></defs><title>g-01</title><path class="cls-1" d="M239.36,258V176.77a44.14,44.14,0,0,0-44.14-44.14H176.87a44.24,44.24,0,0,0-44.24,44.24V623.23a44.14,44.14,0,0,0,44.14,44.14h18.46a44.14,44.14,0,0,0,44.14-44.14V552.36H194.84a12,12,0,0,1-12-12V431.77a12,12,0,0,1,12-12H360a12,12,0,0,1,12,12V673.1A126.9,126.9,0,0,1,245.09,800H127A127,127,0,0,1,0,673V127A127,127,0,0,1,127,0H245.09A126.9,126.9,0,0,1,372,126.9V258a12,12,0,0,1-12,12H251.36A12,12,0,0,1,239.36,258Z"/></svg>