<svg id="Livello_1" data-name="Livello 1" xmlns="http://www.w3.org/2000/svg" viewBox="0 0 1000 1000"><defs><style>.cls-1{fill:#1d1d1b;}</style></defs><title>g-01</title><path class="cls-1" d="M239.36,257.93V176.87a44.24,44.24,0,0,0-44.24-44.24H176.87a44.24,44.24,0,0,0-44.24,44.24V623.13a44.24,44.24,0,0,0,44.24,44.24h18.36a44.13,44.13,0,0,0,44.13-44.13V538.89H194.84a12,12,0,0,1-12-12V431.77a12,12,0,0,1,12-12H360a12,12,0,0,1,12,12V673.1A126.9,126.9,0,0,1,245.09,800H127A127,127,0,0,1,0,673V127A127,127,0,0,1,127,0H245.09A126.9,126.9,0,0,1,372,126.9V258a12,12,0,0,1-12,12H251.46A12.1,12.1,0,0,1,239.36,257.93Z"/></svg>