<svg id="Livello_1" data-name="Livello 1" xmlns="http://www.w3.org/2000/svg" viewBox="0 0 1000 1000"><defs><style>.cls-1{fill:#1d1d1b;}</style></defs><title>g-01</title><path class="cls-1" d="M239.36,258V176.87a44.19,44.19,0,0,0-44.14-44.24H176.87a44.29,44.29,0,0,0-44.24,44.24V623.24a44.2,44.2,0,0,0,44.24,44.14h18.36a44.11,44.11,0,0,0,44.14-44.14V526.79H194.91a12.09,12.09,0,0,1-12.1-12.1v-83a12.07,12.07,0,0,1,12.1-12H360a12,12,0,0,1,12,12V673.11A126.83,126.83,0,0,1,245.09,800H127A126.92,126.92,0,0,1,0,673.11V127A127,127,0,0,1,127,0H245.09A126.93,126.93,0,0,1,372,127V258a11.91,11.91,0,0,1-12,12H251.46A12,12,0,0,1,239.36,258Z"/></svg>