<svg id="Livello_1" data-name="Livello 1" xmlns="http://www.w3.org/2000/svg" viewBox="0 0 1000 1000"><defs><style>.cls-1{fill:#1d1e1c;}</style></defs><title>m-03</title><path class="cls-1" d="M550.6,12V788a12,12,0,0,1-12,12H427a12,12,0,0,1-12-12V424.09L316.18,681.63a15,15,0,0,1-14.78,12.24H248.68a15,15,0,0,1-14.78-12.24L135.67,427.06V788a12,12,0,0,1-12,12H12A12,12,0,0,1,0,788V12A12,12,0,0,1,12,0H123.17a15,15,0,0,1,14.44,10.84L275.09,432.05,412.45,10.85A15,15,0,0,1,426.9,0H538.56A12,12,0,0,1,550.6,12Z"/></svg>