<?xml version="1.0" standalone="no"?>
<!DOCTYPE svg PUBLIC "-//W3C//DTD SVG 1.1//EN" "http://www.w3.org/Graphics/SVG/1.1/DTD/svg11.dtd" >
<svg xmlns="http://www.w3.org/2000/svg" xmlns:xlink="http://www.w3.org/1999/xlink" version="1.1" viewBox="0 0 604 1000">
  <g transform="matrix(1 0 0 -1 0 800)">
   <path fill="currentColor"
d="M550.6 788v-776c0 -6.62402 -5.37598 -12 -12 -12h-111.6c-6.62402 0 -12 7.6983 -12 12v422l-88.21 -421.76c-0.676825 -3.31284 -7.87012 -12.2402 -14.7441 -12.2402h-0.0458984h-73.9297h-0.0361328c-6.87402 0 -13.5974 6.72026 -14.7441 12.2402l-87.6201 411.76
v-412c0 -4.55727 -5.37598 -12 -12 -12h-111.67c-6.62402 0 -12 5.37598 -12 12v776c-0 6.62402 5.37598 12 12 12h111.17h0.0283203c6.22852 0 12.6846 -4.85645 14.4121 -10.8398l137.479 -378.16l137.36 378.15c1.72363 5.98926 8.18164 10.8496 14.4141 10.8496
h0.0361328h111.659h0.0400391c6.62402 0 12 -5.37598 12 -12v0z" />
  </g>

</svg>
