<svg id="Livello_1" data-name="Livello 1" xmlns="http://www.w3.org/2000/svg" viewBox="0 0 1000 1000"><defs><style>.cls-1{fill:#1d1d1b;}</style></defs><title>n-01</title><path class="cls-1" d="M403.54,12V787.9a12.1,12.1,0,0,1-12.1,12.1H288.36a12.08,12.08,0,0,1-8.07-3.08c-.21-.11-.32-.32-.53-.42a12,12,0,0,1-5.41-7.53L122,342.16V787.9a12.1,12.1,0,0,1-12.1,12.1H12A12,12,0,0,1,0,788V12.1A12.1,12.1,0,0,1,12.1,0H126.61c5.2,0,9.87,4,11.36,9.87l138.29,432.7V12a12,12,0,0,1,12-12H391.55A12,12,0,0,1,403.54,12Z"/></svg>