<svg id="Livello_1" data-name="Livello 1" xmlns="http://www.w3.org/2000/svg" viewBox="0 0 1000 1000"><defs><style>.cls-1{fill:#1d1d1b;}</style></defs><title>q-01</title><path class="cls-1" d="M466,775.59,393,702.67a125.28,125.28,0,0,0,3.5-29.72v-546A127,127,0,0,0,269.6,0H126.95A127,127,0,0,0,0,126.95v546A127,127,0,0,0,126.95,800H269.6a124.15,124.15,0,0,0,29.61-3.5l72.92,72.92a12,12,0,0,0,17,0L466,792.57A12,12,0,0,0,466,775.59ZM132.68,623.06V176.84a44.22,44.22,0,0,1,44.26-44.16h42.67a44.21,44.21,0,0,1,44.26,44.16V623.06a44.3,44.3,0,0,1-44.26,44.26H176.94A44.3,44.3,0,0,1,132.68,623.06Z"/></svg>