<svg id="Livello_1" data-name="Livello 1" xmlns="http://www.w3.org/2000/svg" viewBox="0 0 1000 1000"><defs><style>.cls-1{fill:#1d1d1b;}</style></defs><title>q-02</title><path class="cls-1" d="M462.12,667.31H396.55V127a127,127,0,0,0-127-127H127A127,127,0,0,0,0,127V673A127,127,0,0,0,127,800H462.12a12,12,0,0,0,12-12V679.35A12,12,0,0,0,462.12,667.31ZM132.68,623.09V176.91a44.23,44.23,0,0,1,44.23-44.23h42.74a44.23,44.23,0,0,1,44.22,44.23V623.09a44.22,44.22,0,0,1-44.13,44.22H176.91A44.23,44.23,0,0,1,132.68,623.09Z"/></svg>