<svg id="Livello_1" data-name="Livello 1" xmlns="http://www.w3.org/2000/svg" viewBox="0 0 1000 1000"><defs><style>.cls-1{fill:#1d1d1b;}</style></defs><title>q-03</title><path class="cls-1" d="M456.2,824.94,394.11,697.78A126.18,126.18,0,0,0,396.55,673V126.95A127,127,0,0,0,269.6,0H127A127,127,0,0,0,0,126.95V673A127,127,0,0,0,127,800H269.6a126.73,126.73,0,0,0,25.47-2.54h.1L336.9,883.1A12.1,12.1,0,0,0,353,888.62L450.57,841A12,12,0,0,0,456.2,824.94ZM176.94,667.31a44.21,44.21,0,0,1-44.27-44.16V176.94a44.3,44.3,0,0,1,44.27-44.26h42.66a44.3,44.3,0,0,1,44.27,44.26V623.16a44.21,44.21,0,0,1-44.27,44.16Z"/></svg>