<svg id="Livello_1" data-name="Livello 1" xmlns="http://www.w3.org/2000/svg" viewBox="0 0 1000 1000"><defs><style>.cls-1{fill:#1d1d1b;}</style></defs><title>q-04</title><path class="cls-1" d="M269.6,0H127.05A127.06,127.06,0,0,0,0,127.05v546A127,127,0,0,0,127.05,800h18.26l67.08,137.45A12,12,0,0,0,228.52,943l97.54-47.55a12.11,12.11,0,0,0,5.63-16.13L292,798A126.82,126.82,0,0,0,396.55,673.05v-546A127,127,0,0,0,269.6,0ZM132.68,176.94a44.3,44.3,0,0,1,44.26-44.26h42.77a44.21,44.21,0,0,1,44.16,44.26V623.17a44.12,44.12,0,0,1-44.16,44.16H176.94a44.21,44.21,0,0,1-44.26-44.16Z"/></svg>