<svg id="Livello_1" data-name="Livello 1" xmlns="http://www.w3.org/2000/svg" viewBox="0 0 1000 1000"><defs><style>.cls-1{fill:#1d1d1b;}</style></defs><title>question-mark-01</title><path class="cls-1" d="M392.45,0H12A12,12,0,0,0,0,12V231.76a12,12,0,0,0,12,12h98a12,12,0,0,0,12-12V122.06H282.42V331H134.09a12,12,0,0,0-12,12V548.76a12,12,0,0,0,12,12h98a12,12,0,0,0,12-12V453.09H392.45a12,12,0,0,0,12-12V12A12,12,0,0,0,392.45,0Z"/><rect class="cls-1" x="113.15" y="658.17" width="141.79" height="141.83" rx="12.86" ry="12.86"/></svg>