<svg id="Livello_1" data-name="Livello 1" xmlns="http://www.w3.org/2000/svg" viewBox="0 0 1000 1000"><defs><style>.cls-1{fill:#1d1d1b;}</style></defs><title>quotation-mark-right-01</title><path class="cls-1" d="M120.42,0H12.08A12.08,12.08,0,0,0,0,12.08V120.62a12,12,0,0,0,12,12H59.87a3,3,0,0,1,2.32,4.92L8.12,203a6,6,0,0,0,4.63,9.84h34.4a18,18,0,0,0,13.9-6.55l67.32-68.69a18,18,0,0,0,4.13-11.48v-114A12.08,12.08,0,0,0,120.42,0Z"/><path class="cls-1" d="M302,0H193.64a12.08,12.08,0,0,0-12.08,12.08V120.62a12,12,0,0,0,12,12h47.89a3,3,0,0,1,2.32,4.92L189.68,203a6,6,0,0,0,4.63,9.84h34.4a18,18,0,0,0,13.9-6.55l67.31-68.69a18,18,0,0,0,4.13-11.48v-114A12.08,12.08,0,0,0,302,0Z"/></svg>