<svg id="Livello_1" data-name="Livello 1" xmlns="http://www.w3.org/2000/svg" viewBox="0 0 1000 1000"><defs><style>.cls-1{fill:#1d1d1b;}</style></defs><title>quotation-mark-01</title><path class="cls-1" d="M193.64,212.84H302a12.08,12.08,0,0,0,12.08-12.08V92.22a12,12,0,0,0-12-12H254.18a3,3,0,0,1-2.32-4.92L305.94,9.84A6,6,0,0,0,301.3,0H266.9A18,18,0,0,0,253,6.55L185.68,75.24a18,18,0,0,0-4.13,11.48v114A12.08,12.08,0,0,0,193.64,212.84Z"/><path class="cls-1" d="M12.08,212.84H120.41a12.08,12.08,0,0,0,12.08-12.08V92.22a12,12,0,0,0-12-12H72.63a3,3,0,0,1-2.32-4.92L124.38,9.84A6,6,0,0,0,119.74,0H85.34a18,18,0,0,0-13.9,6.55L4.13,75.24A18,18,0,0,0,0,86.72v114A12.08,12.08,0,0,0,12.08,212.84Z"/></svg>