<svg id="Livello_1" data-name="Livello 1" xmlns="http://www.w3.org/2000/svg" viewBox="0 0 1000 1000"><defs><style>.cls-1{fill:#1d1d1b;}</style></defs><title>r-01</title><path class="cls-1" d="M338.32,460.4a126.73,126.73,0,0,0,62-109V127a127,127,0,0,0-127-127H12A12,12,0,0,0,0,12V788a12,12,0,0,0,12,12H120.66a12,12,0,0,0,12-12V478.34h74L267.09,789a13.54,13.54,0,0,0,13.29,11H389.85a12,12,0,0,0,11.81-14.34Zm-70.7-159a44.27,44.27,0,0,1-44.27,44.27H132.7V132.7h90.66A44.27,44.27,0,0,1,267.62,177Z"/></svg>