<svg id="Livello_1" data-name="Livello 1" xmlns="http://www.w3.org/2000/svg" viewBox="0 0 1000 1000"><defs><style>.cls-1{fill:#1d1d1b;}</style></defs><title>s-02</title><path class="cls-1" d="M372.09,515.36V673a127,127,0,0,1-127,127H127A127,127,0,0,1,0,673V527.4a12,12,0,0,1,12-12H120.63a12,12,0,0,1,12,12V629.13a38.21,38.21,0,0,0,38.21,38.21H199a38.21,38.21,0,0,0,38.21-38.21V515.36C237.2,413.13,0,532.63,0,284.64V127A127,127,0,0,1,127,0H245.14a127,127,0,0,1,127,127V272.6a12,12,0,0,1-12,12H251.46a12,12,0,0,1-12-12V170.87a38.21,38.21,0,0,0-38.21-38.21H170.87a38.21,38.21,0,0,0-38.21,38.21V284.64C132.66,387.93,372.09,272.6,372.09,515.36Z"/></svg>