<svg id="Livello_1" data-name="Livello 1" xmlns="http://www.w3.org/2000/svg" viewBox="0 0 1000 1000"><defs><style>.cls-1{fill:#1d1d1b;}</style></defs><title>semicolon-01</title><rect class="cls-1" y="316.61" width="131.19" height="131.23" rx="11.9" ry="11.9"/><path class="cls-1" d="M119.23,667.46H12a12,12,0,0,0-12,12V786.89a11.86,11.86,0,0,0,11.86,11.86H59.28a3,3,0,0,1,2.29,4.87L8,868.46a6,6,0,0,0,4.59,9.74H46.69a17.85,17.85,0,0,0,13.77-6.49l66.65-68a17.85,17.85,0,0,0,4.09-11.36V679.42A12,12,0,0,0,119.23,667.46Z"/></svg>