<svg id="Livello_1" data-name="Livello 1" xmlns="http://www.w3.org/2000/svg" viewBox="0 0 1000 1000"><defs><style>.cls-1{fill:#1d1d1b;}</style></defs><title>w-01</title><path class="cls-1" d="M504.24,463.36,583.15,11.21A13.54,13.54,0,0,1,596.49,0H707.26a10.53,10.53,0,0,1,10.37,12.34L582.08,788.79A13.54,13.54,0,0,1,568.75,800H439.84a13.54,13.54,0,0,1-13.36-11.32L358.95,381.11,291.31,788.68A13.54,13.54,0,0,1,278,800H149.05a13.54,13.54,0,0,1-13.34-11.21L.16,12.34A10.53,10.53,0,0,1,10.53,0H121.41a13.54,13.54,0,0,1,13.34,11.21l78.91,452L302.89,10.92A13.54,13.54,0,0,1,316.17,0h85.46a13.54,13.54,0,0,1,13.28,10.92Z"/></svg>