<svg id="Livello_1" data-name="Livello 1" xmlns="http://www.w3.org/2000/svg" viewBox="0 0 1000 1000"><defs><style>.cls-1{fill:#1d1d1b;}</style></defs><title>w-02</title><path class="cls-1" d="M707.26,0H596.49a13.54,13.54,0,0,0-13.34,11.21L504.24,463.36,414.91,117.05a13.54,13.54,0,0,0-13.28-10.92H316.17a13.54,13.54,0,0,0-13.28,10.92l-89.23,346.2-78.91-452A13.54,13.54,0,0,0,121.41,0H10.53A10.53,10.53,0,0,0,.16,12.34L135.72,788.79A13.54,13.54,0,0,0,149.05,800H278a13.54,13.54,0,0,0,13.36-11.32l67.63-407.57,67.53,407.57A13.54,13.54,0,0,0,439.84,800H568.75a13.54,13.54,0,0,0,13.34-11.21L717.63,12.34A10.53,10.53,0,0,0,707.26,0Z"/></svg>