<svg id="Livello_1" data-name="Livello 1" xmlns="http://www.w3.org/2000/svg" viewBox="0 0 1000 1000"><defs><style>.cls-1{fill:#1d1d1b;}</style></defs><title>x-01</title><path class="cls-1" d="M468.22,800H349.59A13.55,13.55,0,0,1,337,791.56l-97.6-239.43-97.7,239.43A13.55,13.55,0,0,1,129.19,800H10.55A10.54,10.54,0,0,1,.79,785.48L167.62,376.31,20,14.52A10.54,10.54,0,0,1,29.78,0H148.52a13.55,13.55,0,0,1,12.55,8.43l78.37,192,78.37-192A13.55,13.55,0,0,1,330.35,0H449a10.54,10.54,0,0,1,9.76,14.52L311.15,376.31,478,785.48A10.54,10.54,0,0,1,468.22,800Z"/></svg>