<svg xmlns="http://www.w3.org/2000/svg" viewBox="0 0 1000 1000"><defs><style>.cls-1{isolation:isolate;}.cls-2{fill:#1d1d1b;mix-blend-mode:multiply;}</style></defs><title>y-01</title><g class="cls-1"><g id="Livello_1" data-name="Livello 1"><path class="cls-2" d="M334.78,0H453.28A10.53,10.53,0,0,1,463,14.5l-159.44,391-5.31,12.84V788a12,12,0,0,1-12,12H177.67a12,12,0,0,1-12-12V418.57l-5.31-13.05L.79,14.51A10.53,10.53,0,0,1,10.54,0H129.15a13.54,13.54,0,0,1,12.54,8.43L232,240.49,322.24,8.43A13.54,13.54,0,0,1,334.78,0Z"/></g></g></svg>